# xmcd CD database file
#
# Track frame offsets:
#	150
#	18825
#	40312
#	57782
#	76537
#	87225
#	103012
#	124907
#	145162
#	165150
#	190462
#	196462
#
# Disc length: 2707 seconds
#
# Revision: 0
# Processed by: cddbd v1.5.2PL0 Copyright (c) Steve Scherf et al.
# Submitted via: CDex 1.70beta2
#
DISCID=920a910c
DTITLE=Mem Shannon - A Cab Driver's Blues
DYEAR=1995
DGENRE=Blues
TTITLE0=My Baby's been Watching TV
TTITLE1=Taxicab Driver
TTITLE2=Me and my Bed
TTITLE3=Play the Guitar, Son
TTITLE4=You ain't nothin' nice
TTITLE5=One hot night
TTITLE6=The boogie man
TTITLE7=Maxine
TTITLE8=Got to go
TTITLE9=If this ain't the blues
TTITLE10=Ode to Benny Hill
TTITLE11=$ 17.00 Brunette
EXTD=YEAR: 1995
EXTT0=
EXTT1=
EXTT2=
EXTT3=
EXTT4=
EXTT5=
EXTT6=
EXTT7=
EXTT8=
EXTT9=
EXTT10=
EXTT11=
PLAYORDER=
